<?xml version="1.0" encoding="UTF-8" standalone="no"?>
<svg width="29px" height="41px" viewBox="0 0 29 41" version="1.1" xmlns="http://www.w3.org/2000/svg" xmlns:xlink="http://www.w3.org/1999/xlink" xmlns:sketch="http://www.bohemiancoding.com/sketch/ns">
    <!-- Generator: Sketch 3.4 (15575) - http://www.bohemiancoding.com/sketch -->
    <title>S6</title>
    <desc>Created with Sketch.</desc>
    <defs></defs>
    <g id="Page-1" stroke="none" stroke-width="1" fill="none" fill-rule="evenodd" sketch:type="MSPage">
        <g id="S6" sketch:type="MSArtboardGroup">
            <g id="Rectangle-12-+-6-+-Fill-81" sketch:type="MSLayerGroup">
                <g id="Rectangle-12" stroke="#D8D8D8" fill="#F7F7F7" sketch:type="MSShapeGroup">
                    <rect x="0" y="0" width="29" height="41" rx="3"></rect>
                </g>
                <text id="6" sketch:type="MSTextLayer" font-family="Droid Sans" font-size="13" font-weight="bold" sketch:alignment="middle" letter-spacing="1" fill="#000000">
                    <tspan x="11" y="15">6</tspan>
                </text>
                <g id="Fill-81" transform="translate(8.000000, 20.000000)" fill="#000000" sketch:type="MSShapeGroup">
                    <path d="M5.81578947,9.625 C5.92562879,9.22202105 5.48971709,9.21288421 5.47368421,9.625 C5.45809479,11.3140632 3.74845047,12.1764632 2.39473684,11.9583333 C0.592681007,11.6559579 -0.0169833234,10.0095579 8.8817842e-16,9.04166667 C0.0574820912,6.04564211 3.53321482,3.83806316 6.5,0 C8.96987014,3.46433684 12.763186,6.18446316 13,8.75 C13.286484,12.4222737 8.08920611,13.7497684 7.18421053,9.625 C7.29898865,9.30837895 6.90047967,9.17722105 6.84210526,9.625 C7.0439701,10.7234105 6.88449851,11.1961684 8.21052632,14 L4.44736842,14 C5.35166705,12.6898947 5.86306424,11.0826947 5.81578947,9.625 L5.81578947,9.625 Z"></path>
                </g>
            </g>
        </g>
    </g>
</svg>