<?xml version="1.0" encoding="utf-8"?>
<!-- Generator: Adobe Illustrator 16.0.0, SVG Export Plug-In . SVG Version: 6.00 Build 0)  -->
<!DOCTYPE svg PUBLIC "-//W3C//DTD SVG 1.1//EN" "http://www.w3.org/Graphics/SVG/1.1/DTD/svg11.dtd">
<svg version="1.1" id="Layer_1" xmlns:sketch="http://www.bohemiancoding.com/sketch/ns"
	 xmlns="http://www.w3.org/2000/svg" xmlns:xlink="http://www.w3.org/1999/xlink" x="0px" y="0px" width="29px" height="41px"
	 viewBox="0 0 29 41" enable-background="new 0 0 29 41" xml:space="preserve">
<g>
	<path fill="#F7F7F7" d="M3,0h23c1.656,0,3,1.343,3,3v35c0,1.656-1.344,3-3,3H3c-1.657,0-3-1.344-3-3V3C0,1.343,1.343,0,3,0z"/>
	<path fill="none" stroke="#D8D8D8" d="M3,0h23c1.656,0,3,1.343,3,3v35c0,1.656-1.344,3-3,3H3c-1.657,0-3-1.344-3-3V3
		C0,1.343,1.343,0,3,0z"/>
	<path d="M14.182,29.625c0.11-0.402-0.326-0.412-0.342,0c-0.016,1.689-1.725,2.551-3.079,2.334
		c-1.802-0.303-2.412-1.949-2.395-2.918c0.058-2.995,3.533-5.203,6.5-9.041c2.47,3.465,6.264,6.185,6.5,8.75
		c0.287,3.672-4.91,5-5.816,0.875c0.115-0.316-0.283-0.447-0.341,0c0.201,1.099,0.041,1.571,1.368,4.375h-3.764
		C13.718,32.689,14.229,31.082,14.182,29.625z"/>
	<text transform="matrix(1 0 0 1 7.3398 16)" fill="#231F20" font-family="'Arial-BoldMT'" font-size="13">10</text>
</g>
</svg>
