<?xml version="1.0" encoding="UTF-8" standalone="no"?>
<svg width="29px" height="41px" viewBox="0 0 29 41" version="1.1" xmlns="http://www.w3.org/2000/svg" xmlns:xlink="http://www.w3.org/1999/xlink" xmlns:sketch="http://www.bohemiancoding.com/sketch/ns">
    <!-- Generator: Sketch 3.4 (15575) - http://www.bohemiancoding.com/sketch -->
    <title>C7</title>
    <desc>Created with Sketch.</desc>
    <defs></defs>
    <g id="Page-1" stroke="none" stroke-width="1" fill="none" fill-rule="evenodd" sketch:type="MSPage">
        <g id="C7" sketch:type="MSArtboardGroup">
            <g id="Rectangle-12-+-7-+-Fill-76" sketch:type="MSLayerGroup">
                <g id="Rectangle-12" stroke="#D8D8D8" fill="#F7F7F7" sketch:type="MSShapeGroup">
                    <rect x="0" y="0" width="29" height="41" rx="3"></rect>
                </g>
                <text id="7" sketch:type="MSTextLayer" font-family="Droid Sans" font-size="13" font-weight="bold" sketch:alignment="middle" letter-spacing="1" fill="#000000">
                    <tspan x="11" y="15">7</tspan>
                </text>
                <path d="M12.9111111,34 C13.4740739,32.6858949 13.9547919,31.3373802 14.0666667,29.7608696 C14.1182819,29.365796 13.7938833,29.356696 13.7777778,29.7608696 C12.8097881,33.2779674 7.83280799,32.3170582 8,28.9130435 C8.14315219,26.2743361 10.854505,25.6922168 12.3333333,26.6521739 C12.826424,26.9030931 12.7951601,26.7071575 12.6222222,26.3695652 C10.3895623,24.0470972 11.6624898,21.0540316 14.6444444,21 C17.5707894,21.1808636 18.3670144,24.3823774 16.3777778,26.3695652 C16.2505358,26.4927375 15.7305229,27.2196045 16.3777778,26.6521739 C18.4140537,25.372293 21.052553,26.8118082 21,28.9130435 C20.9002492,32.6847574 16.2166905,32.9691342 15.2222222,29.7608696 C15.120447,29.4357527 14.8422271,29.2591547 14.9333333,29.7608696 C15.0573456,30.9418121 15.3456043,32.5769786 16.0888889,34 L12.9111111,34 L12.9111111,34 Z" id="Fill-76" fill="#000000" sketch:type="MSShapeGroup"></path>
            </g>
        </g>
    </g>
</svg>